<svg width="40" height="40" viewBox="0 0 40 40" fill="none" xmlns="http://www.w3.org/2000/svg">
<g clip-path="url(#clip0_1255_158101)">
<path d="M23.172 0C23.7022 0 24.2107 0.210507 24.5857 0.585255L36.4137 12.4044C36.7891 12.7795 37 13.2884 37 13.8191V35.3333C37 37.9107 34.8689 40 32.24 40H7.76C5.13112 40 3 37.9107 3 35.3333V4.66667C3 2.08934 5.13112 0 7.76 0H23.172Z" fill="#002542"/>
<g filter="url(#filter0_d_1255_158101)">
<path d="M35.1548 12.1381C35.4678 12.4537 35.2443 12.9902 34.7998 12.9902H29C26.4227 12.9902 24.0976 10.7233 24.0976 8.21031V2.20435C24.0976 1.75791 24.6382 1.53528 24.9526 1.85224L35.1548 12.1381Z" fill="white" fill-opacity="0.24" shape-rendering="crispEdges"/>
</g>
<path d="M12 31V22.324H15.432C16.072 22.324 16.648 22.438 17.16 22.666C17.676 22.894 18.084 23.228 18.384 23.668C18.684 24.104 18.834 24.636 18.834 25.264C18.834 25.836 18.708 26.328 18.456 26.74C18.204 27.148 17.846 27.462 17.382 27.682C16.918 27.902 16.368 28.012 15.732 28.012H14.334V31H12ZM14.31 26.272H15.66C15.956 26.272 16.202 26.154 16.398 25.918C16.594 25.682 16.692 25.424 16.692 25.144C16.692 24.844 16.584 24.588 16.368 24.376C16.156 24.16 15.92 24.052 15.66 24.052H14.31V26.272Z" fill="#31A8FF"/>
<path d="M23.4796 31.12C23.0316 31.12 22.5876 31.064 22.1476 30.952C21.7116 30.84 21.3096 30.67 20.9416 30.442C20.5776 30.214 20.2776 29.928 20.0416 29.584C19.8056 29.236 19.6696 28.828 19.6336 28.36H22.0096C22.0536 28.564 22.1396 28.738 22.2676 28.882C22.3956 29.026 22.5616 29.138 22.7656 29.218C22.9696 29.294 23.2036 29.332 23.4676 29.332C23.7076 29.332 23.9336 29.308 24.1456 29.26C24.3616 29.212 24.5356 29.132 24.6676 29.02C24.8036 28.904 24.8716 28.744 24.8716 28.54C24.8716 28.364 24.8016 28.228 24.6616 28.132C24.5256 28.036 24.3476 27.962 24.1276 27.91C23.9116 27.858 23.6836 27.812 23.4436 27.772L22.1176 27.544C21.4536 27.436 20.9176 27.168 20.5096 26.74C20.1056 26.308 19.8956 25.724 19.8796 24.988C19.8716 24.404 20.0276 23.906 20.3476 23.494C20.6716 23.078 21.1036 22.762 21.6436 22.546C22.1876 22.326 22.7876 22.216 23.4436 22.216C24.2356 22.216 24.9056 22.332 25.4536 22.564C26.0016 22.796 26.4176 23.118 26.7016 23.53C26.9896 23.942 27.1396 24.416 27.1516 24.952H24.8356C24.8116 24.728 24.7436 24.548 24.6316 24.412C24.5196 24.272 24.3676 24.172 24.1756 24.112C23.9876 24.048 23.7596 24.016 23.4916 24.016C23.2676 24.016 23.0796 24.038 22.9276 24.082C22.7796 24.122 22.6616 24.176 22.5736 24.244C22.4856 24.308 22.4216 24.38 22.3816 24.46C22.3456 24.54 22.3276 24.62 22.3276 24.7C22.3276 24.896 22.3896 25.054 22.5136 25.174C22.6376 25.294 22.8856 25.388 23.2576 25.456L24.5896 25.684C25.2096 25.792 25.6956 25.96 26.0476 26.188C26.3996 26.412 26.6576 26.666 26.8216 26.95C26.9896 27.234 27.0956 27.516 27.1396 27.796C27.1836 28.076 27.2056 28.324 27.2056 28.54C27.2056 29.032 27.0416 29.474 26.7136 29.866C26.3896 30.254 25.9476 30.56 25.3876 30.784C24.8276 31.008 24.1916 31.12 23.4796 31.12Z" fill="#31A8FF"/>
</g>
<defs>
<filter id="filter0_d_1255_158101" x="22.0977" y="1.70337" width="15.2031" height="15.2869" filterUnits="userSpaceOnUse" color-interpolation-filters="sRGB">
<feFlood flood-opacity="0" result="BackgroundImageFix"/>
<feColorMatrix in="SourceAlpha" type="matrix" values="0 0 0 0 0 0 0 0 0 0 0 0 0 0 0 0 0 0 127 0" result="hardAlpha"/>
<feOffset dy="2"/>
<feGaussianBlur stdDeviation="1"/>
<feComposite in2="hardAlpha" operator="out"/>
<feColorMatrix type="matrix" values="0 0 0 0 0 0 0 0 0 0 0 0 0 0 0 0 0 0 0.04 0"/>
<feBlend mode="normal" in2="BackgroundImageFix" result="effect1_dropShadow_1255_158101"/>
<feBlend mode="normal" in="SourceGraphic" in2="effect1_dropShadow_1255_158101" result="shape"/>
</filter>
<clipPath id="clip0_1255_158101">
<rect width="40" height="40" fill="white"/>
</clipPath>
</defs>
</svg>
