<svg width="40" height="40" viewBox="0 0 40 40" fill="none" xmlns="http://www.w3.org/2000/svg">
<g clip-path="url(#clip0_1255_158078)">
<path d="M23.172 0C23.7022 0 24.2107 0.210507 24.5857 0.585255L36.4137 12.4044C36.7891 12.7795 37 13.2884 37 13.8191V35.3333C37 37.9107 34.8689 40 32.24 40H7.76C5.13112 40 3 37.9107 3 35.3333V4.66667C3 2.08934 5.13112 0 7.76 0H23.172Z" fill="#FFCD66"/>
<g filter="url(#filter0_d_1255_158078)">
<path d="M35.1548 12.1381C35.4678 12.4537 35.2443 12.9902 34.7998 12.9902H29C26.4227 12.9902 24.0976 10.7233 24.0976 8.21031V2.20435C24.0976 1.75791 24.6382 1.53528 24.9526 1.85224L35.1548 12.1381Z" fill="white" fill-opacity="0.24" shape-rendering="crispEdges"/>
</g>
<path opacity="0.48" d="M22.4298 16.4666H20.9166C20.8085 16.4666 20.7545 16.5132 20.7004 16.5599C20.6464 16.6066 20.6464 16.6999 20.6464 16.7932C20.7545 16.9799 20.8085 17.2132 20.8085 17.3999V23.4666L20.9706 24.3999C20.9706 24.4932 21.0787 24.5399 21.1328 24.5866C21.1868 24.5866 21.2408 24.6332 21.2408 24.6332L21.5111 24.7732C22.3758 25.0532 22.9162 25.7532 22.9162 26.4999V28.5999C22.9162 28.6932 22.9703 28.7866 23.0784 28.7866C23.1324 28.7866 23.1324 28.8332 23.1864 28.8332C23.2405 28.8332 23.2945 28.8332 23.3486 28.7866C23.7809 28.5066 23.9971 28.1332 23.9971 27.6666V17.8666C24.0512 17.0732 23.3486 16.4666 22.4298 16.4666Z" fill="white"/>
<path d="M15.1343 17.12C15.1884 16.98 15.2965 16.9333 15.4046 16.9333H15.945C16.0531 16.9333 16.1612 16.98 16.2152 17.12L16.5395 18.1933L16.9718 17.4L16.3233 16.0933V16H14.8641V16.0933L14.3237 17.4L14.756 18.2867L15.1343 17.12Z" fill="white"/>
<path d="M15.6204 17.3999L14.9178 19.4999C14.8098 19.6866 14.8638 19.9199 15.0259 20.0599C15.2421 20.2466 16.0528 20.2466 16.2689 20.0599C16.4311 19.9199 16.4851 19.6866 16.4311 19.4999L15.7285 17.3999H15.6204Z" fill="white"/>
<path d="M21.3493 25.1933L20.971 25.0533C20.5386 24.9133 20.2144 24.5867 20.2144 24.1667V17.4C20.2144 16.6067 19.5118 16 18.593 16H16.8636L17.5662 17.3067C17.6202 17.3533 17.6202 17.4467 17.5662 17.4933L16.8636 18.66C16.8636 18.7067 16.8096 18.7533 16.7555 18.7533L16.9717 19.36C17.1338 19.6867 17.0258 20.1067 16.7015 20.3867C16.4853 20.5733 16.107 20.6667 15.6746 20.6667C15.2423 20.6667 14.864 20.5733 14.6478 20.3867C14.3235 20.1067 14.2155 19.6867 14.3776 19.36L14.5938 18.8C14.4857 18.8 14.3776 18.7533 14.3235 18.66L13.7831 17.4933V17.3067L14.3235 16H11.6213C10.7026 16 10 16.6067 10 17.4V28.6C10 29.3933 10.7026 30 11.6213 30H20.8089C21.7276 30 22.4302 29.3933 22.4302 28.6V26.5C22.4302 25.8933 21.9978 25.38 21.3493 25.1933ZM15.1342 28.1333H14.5938C14.4316 28.1333 14.3235 28.04 14.3235 27.9C14.3235 27.76 14.4316 27.6667 14.5938 27.6667H15.1342C15.2963 27.6667 15.4044 27.76 15.4044 27.9C15.4044 28.04 15.2963 28.1333 15.1342 28.1333ZM15.1342 27.2H14.5938C14.4316 27.2 14.3235 27.1067 14.3235 26.9667C14.3235 26.8267 14.4316 26.7333 14.5938 26.7333H15.1342C15.2963 26.7333 15.4044 26.8267 15.4044 26.9667C15.4044 27.1067 15.2963 27.2 15.1342 27.2ZM15.1342 26.2667H14.5938C14.4316 26.2667 14.3235 26.1733 14.3235 26.0333C14.3235 25.8933 14.4316 25.8 14.5938 25.8H15.1342C15.2963 25.8 15.4044 25.8933 15.4044 26.0333C15.4044 26.1733 15.2963 26.2667 15.1342 26.2667ZM15.1342 25.3333H14.5938C14.4316 25.3333 14.3235 25.24 14.3235 25.1C14.3235 24.96 14.4316 24.8667 14.5938 24.8667H15.1342C15.2963 24.8667 15.4044 24.96 15.4044 25.1C15.4044 25.24 15.2963 25.3333 15.1342 25.3333ZM15.1342 24.4H14.5938C14.4316 24.4 14.3235 24.3067 14.3235 24.1667C14.3235 24.0267 14.4316 23.9333 14.5938 23.9333H15.1342C15.2963 23.9333 15.4044 24.0267 15.4044 24.1667C15.4044 24.3067 15.2963 24.4 15.1342 24.4ZM15.1342 23.4667H14.5938C14.4316 23.4667 14.3235 23.3733 14.3235 23.2333C14.3235 23.0933 14.4316 23 14.5938 23H15.1342C15.2963 23 15.4044 23.0933 15.4044 23.2333C15.4044 23.3733 15.2963 23.4667 15.1342 23.4667ZM15.1342 22.5333H14.5938C14.4316 22.5333 14.3235 22.44 14.3235 22.3C14.3235 22.16 14.4316 22.0667 14.5938 22.0667H15.1342C15.2963 22.0667 15.4044 22.16 15.4044 22.3C15.4044 22.44 15.2963 22.5333 15.1342 22.5333ZM15.1342 21.6H14.5938C14.4316 21.6 14.3235 21.5067 14.3235 21.3667C14.3235 21.2267 14.4316 21.1333 14.5938 21.1333H15.1342C15.2963 21.1333 15.4044 21.2267 15.4044 21.3667C15.4044 21.5067 15.2963 21.6 15.1342 21.6ZM16.7555 27.6667H16.2151C16.053 27.6667 15.9449 27.5733 15.9449 27.4333C15.9449 27.2933 16.053 27.2 16.2151 27.2H16.7555C16.9177 27.2 17.0258 27.2933 17.0258 27.4333C17.0258 27.5733 16.9177 27.6667 16.7555 27.6667ZM16.7555 26.7333H16.2151C16.053 26.7333 15.9449 26.64 15.9449 26.5C15.9449 26.36 16.053 26.2667 16.2151 26.2667H16.7555C16.9177 26.2667 17.0258 26.36 17.0258 26.5C17.0258 26.64 16.9177 26.7333 16.7555 26.7333ZM16.7555 25.8H16.2151C16.053 25.8 15.9449 25.7067 15.9449 25.5667C15.9449 25.4267 16.053 25.3333 16.2151 25.3333H16.7555C16.9177 25.3333 17.0258 25.4267 17.0258 25.5667C17.0258 25.7067 16.9177 25.8 16.7555 25.8ZM16.7555 24.8667H16.2151C16.053 24.8667 15.9449 24.7733 15.9449 24.6333C15.9449 24.4933 16.053 24.4 16.2151 24.4H16.7555C16.9177 24.4 17.0258 24.4933 17.0258 24.6333C17.0258 24.7733 16.9177 24.8667 16.7555 24.8667ZM16.7555 23.9333H16.2151C16.053 23.9333 15.9449 23.84 15.9449 23.7C15.9449 23.56 16.053 23.4667 16.2151 23.4667H16.7555C16.9177 23.4667 17.0258 23.56 17.0258 23.7C17.0258 23.84 16.9177 23.9333 16.7555 23.9333ZM16.7555 23H16.2151C16.053 23 15.9449 22.9067 15.9449 22.7667C15.9449 22.6267 16.053 22.5333 16.2151 22.5333H16.7555C16.9177 22.5333 17.0258 22.6267 17.0258 22.7667C17.0258 22.9067 16.9177 23 16.7555 23ZM16.7555 22.0667H16.2151C16.053 22.0667 15.9449 21.9733 15.9449 21.8333C15.9449 21.6933 16.053 21.6 16.2151 21.6H16.7555C16.9177 21.6 17.0258 21.6933 17.0258 21.8333C17.0258 21.9733 16.9177 22.0667 16.7555 22.0667Z" fill="white"/>
</g>
<defs>
<filter id="filter0_d_1255_158078" x="22.0977" y="1.70337" width="15.2031" height="15.2869" filterUnits="userSpaceOnUse" color-interpolation-filters="sRGB">
<feFlood flood-opacity="0" result="BackgroundImageFix"/>
<feColorMatrix in="SourceAlpha" type="matrix" values="0 0 0 0 0 0 0 0 0 0 0 0 0 0 0 0 0 0 127 0" result="hardAlpha"/>
<feOffset dy="2"/>
<feGaussianBlur stdDeviation="1"/>
<feComposite in2="hardAlpha" operator="out"/>
<feColorMatrix type="matrix" values="0 0 0 0 0 0 0 0 0 0 0 0 0 0 0 0 0 0 0.04 0"/>
<feBlend mode="normal" in2="BackgroundImageFix" result="effect1_dropShadow_1255_158078"/>
<feBlend mode="normal" in="SourceGraphic" in2="effect1_dropShadow_1255_158078" result="shape"/>
</filter>
<clipPath id="clip0_1255_158078">
<rect width="40" height="40" fill="white"/>
</clipPath>
</defs>
</svg>
