<svg width="16" height="16" viewBox="0 0 16 16" fill="none" xmlns="http://www.w3.org/2000/svg">
<path d="M15.1168 1L8.76172 7.34165" stroke="#8A8D91" stroke-linecap="square" stroke-linejoin="round"/>
<path d="M8.43913 10.1911C9.19153 9.43869 9.19153 8.21604 8.43913 7.45021C7.68673 6.68437 6.46408 6.69781 5.69824 7.45021L8.43913 10.1911Z" stroke="#8A8D91" stroke-linecap="square" stroke-linejoin="round"/>
<path d="M1.02277 15.0001C0.780926 11.6815 2.47382 8.53751 5.71183 7.44922L8.45271 10.1901C7.96902 10.8753 7.8078 13.4012 9.44695 15.0001H1.02277Z" stroke="#8A8D91" stroke-miterlimit="10" stroke-linecap="square"/>
<path d="M4.07237 11.4941C4.07237 11.4941 3.105 12.784 3.07812 14.7053" stroke="#8A8D91" stroke-linecap="square" stroke-linejoin="round"/>
<path d="M5.84602 12.9844C5.65792 13.3337 5.42951 13.9786 5.44295 14.6907" stroke="#8A8D91" stroke-linecap="square" stroke-linejoin="round"/>
<path d="M12.8193 13.8711H15.493" stroke="#8A8D91" stroke-linecap="square" stroke-linejoin="round"/>
<path d="M11.0186 10.9297H15.4926" stroke="#8A8D91" stroke-linecap="square" stroke-linejoin="round"/>
<path d="M12.04 8H15.493" stroke="#8A8D91" stroke-linecap="square" stroke-linejoin="round"/>
</svg>
