<svg xmlns="http://www.w3.org/2000/svg" width="24" height="24" viewBox="0 0 24 24" fill="none" class="weava-extension-context" data-weava-installed="1">
<path opacity="0.32" d="M21.1808 16.9703C20.8971 17.6255 20.2225 18 19.5086 18H14.8154C14.8462 17.9145 14.8735 17.8269 14.8971 17.7373C15.1709 16.6974 14.8825 15.639 14.2214 14.8963C14.4654 12.9091 14.6177 10.8733 14.7108 9.26516C14.7569 8.46731 13.7795 8.20081 13.4274 8.91526C12.7178 10.3553 11.8493 12.1958 11.0842 14.041C10.1467 14.3479 9.3768 15.1177 9.10295 16.1576C8.93642 16.7899 8.97782 17.4291 9.18451 18H4.49141C3.77747 18 3.10288 17.6255 2.81918 16.9703C2.29212 15.7533 2 14.4108 2 13C2 7.47715 6.47715 3 12 3C17.5229 3 22 7.47715 22 13C22 14.4108 21.7079 15.7533 21.1808 16.9703Z" fill="currentColor"/>
<path d="M14.7108 9.26516C14.7569 8.46731 13.7795 8.20081 13.4274 8.91526C12.7178 10.3553 11.8493 12.1958 11.0842 14.041C10.1467 14.3479 9.3768 15.1177 9.10295 16.1576C8.6742 17.7856 9.62375 19.459 11.2238 19.8953C12.8238 20.3315 14.4684 19.3654 14.8971 17.7373C15.1709 16.6974 14.8825 15.639 14.2214 14.8963C14.4654 12.9091 14.6177 10.8733 14.7108 9.26516Z" fill="currentColor"/>
</svg>
