<svg xmlns="http://www.w3.org/2000/svg" xmlns:xlink="http://www.w3.org/1999/xlink" aria-hidden="true" role="img" class="component-iconify MuiBox-root css-1virv8 iconify iconify--flagpack" width="1.34em" height="1em" viewBox="0 0 32 24"><defs><path id="iconifyReact3157" fill="#fff" d="M0 0h32v24H0z"></path></defs><mask id="iconifyReact3158" width="32" height="24" x="0" y="0" maskUnits="userSpaceOnUse"><use href="#iconifyReact3157"></use></mask><g fill="none" mask="url(#iconifyReact3158)"><path fill="#2E42A5" fill-rule="evenodd" d="M0 0v24h32V0H0z" clip-rule="evenodd"></path><mask id="iconifyReact3159" width="32" height="24" x="0" y="0" maskUnits="userSpaceOnUse"><path fill="#fff" fill-rule="evenodd" d="M0 0v24h32V0H0z" clip-rule="evenodd"></path></mask><g mask="url(#iconifyReact3159)"><mask id="iconifyReact3160" width="32" height="24" x="0" y="0" maskUnits="userSpaceOnUse"><use href="#iconifyReact3157"></use></mask><g mask="url(#iconifyReact3160)"><path fill="#fff" d="m-3.563 22.285l7.041 2.979L32.16 3.238l3.714-4.426l-7.53-.995l-11.698 9.491l-9.416 6.396l-10.793 8.581z"></path><path fill="#F50100" d="M-2.6 24.372L.989 26.1L34.54-1.599h-5.037l-32.102 25.97z"></path><path fill="#fff" d="m35.563 22.285l-7.042 2.979L-.159 3.238l-3.715-4.426l7.53-.995l11.698 9.491l9.416 6.396l10.793 8.581z"></path><path fill="#F50100" d="m35.323 23.783l-3.588 1.728l-14.286-11.86l-4.236-1.324l-17.445-13.5H.806l17.434 13.18l4.631 1.588l12.452 10.188z"></path><mask id="iconifyReact3161" fill="#fff"><path fill-rule="evenodd" d="M19.778-2h-7.556V8H-1.973v8h14.195v10h7.556V16h14.25V8h-14.25V-2z" clip-rule="evenodd"></path></mask><path fill="#F50100" fill-rule="evenodd" d="M19.778-2h-7.556V8H-1.973v8h14.195v10h7.556V16h14.25V8h-14.25V-2z" clip-rule="evenodd"></path><path fill="#fff" d="M12.222-2v-2h-2v2h2zm7.556 0h2v-2h-2v2zM12.222 8v2h2V8h-2zM-1.973 8V6h-2v2h2zm0 8h-2v2h2v-2zm14.195 0h2v-2h-2v2zm0 10h-2v2h2v-2zm7.556 0v2h2v-2h-2zm0-10v-2h-2v2h2zm14.25 0v2h2v-2h-2zm0-8h2V6h-2v2zm-14.25 0h-2v2h2V8zm-7.556-8h7.556v-4h-7.556v4zm2 8V-2h-4V8h4zm-16.195 2h14.195V6H-1.973v4zm2 6V8h-4v8h4zm12.195-2H-1.973v4h14.195v-4zm2 12V16h-4v10h4zm5.556-2h-7.556v4h7.556v-4zm-2-8v10h4V16h-4zm16.25-2h-14.25v4h14.25v-4zm-2-6v8h4V8h-4zm-12.25 2h14.25V6h-14.25v4zm-2-12V8h4V-2h-4z" mask="url(#iconifyReact3161)"></path></g></g></g></svg>
