<svg width="16" height="15" viewBox="0 0 16 15" fill="none" xmlns="http://www.w3.org/2000/svg">
<path d="M15.4288 13.0664H0.58178C0.261999 13.0664 0.0107422 13.3177 0.0107422 13.6374C0.0107422 13.9572 0.261999 14.2085 0.58178 14.2085H15.4288C15.7485 14.2085 15.9998 13.9572 15.9998 13.6374C15.9998 13.3177 15.7485 13.0664 15.4288 13.0664Z" fill="currentcolor"/>
<path d="M15.4294 5.48196H11.0553V0.571038C11.0553 0.251257 10.804 0 10.4843 0H5.52764C5.20786 0 4.9566 0.251257 4.9566 0.571038V3.52901H0.571038C0.251257 3.52901 0 3.78027 0 4.10005V10.7812C0 11.101 0.251257 11.3522 0.571038 11.3522H5.52764H10.45H15.4066C15.7264 11.3522 15.9776 11.101 15.9776 10.7812V6.053C15.9776 5.73322 15.7264 5.48196 15.4066 5.48196H15.4294ZM1.1535 4.67109H4.96803V10.2102H1.1535V4.67109ZM6.1101 4.10005V1.14208H9.92463V6.00732C9.92463 6.00732 9.92463 6.04158 9.92463 6.06442V10.2216H6.12152V4.11147L6.1101 4.10005ZM14.8584 10.2102H11.0553V6.62404H14.8584V10.2102Z" fill="currentcolor"/>
</svg>
