<svg width="14" height="14" viewBox="0 0 14 14" fill="none" xmlns="http://www.w3.org/2000/svg">
<path d="M13.8318 13.0494L11.2161 10.4676C12.1418 9.35494 12.7016 7.92901 12.7016 6.37346C12.7016 2.86265 9.85986 0 6.35078 0C2.84171 0 0 2.86265 0 6.37346C0 9.88426 2.85247 12.7469 6.35078 12.7469C7.9008 12.7469 9.32166 12.1852 10.4304 11.2562L13.0568 13.838C13.1644 13.946 13.3043 14 13.4443 14C13.5842 14 13.7349 13.946 13.8426 13.838C14.0578 13.6219 14.0471 13.2654 13.8426 13.0494H13.8318ZM6.35078 11.6451C3.45526 11.6451 1.10869 9.27932 1.10869 6.38426C1.10869 3.4892 3.45526 1.12346 6.35078 1.12346C9.24631 1.12346 11.5929 3.4892 11.5929 6.38426C11.5929 9.27932 9.24631 11.6451 6.35078 11.6451Z" fill="#8A8D91"/>
</svg>
