<svg xmlns="http://www.w3.org/2000/svg" width="24" height="24" viewBox="0 0 24 24" fill="currentColor">
<path d="M7.72269 1.10502C8.04079 0.966359 8.3992 0.997545 8.73649 1.01866C9.05411 1.03689 9.38757 1.1458 9.5886 1.40537C9.7762 1.63039 9.83857 1.92834 9.84913 2.21478C9.9734 4.25822 10.0598 6.31029 9.93021 8.35565C9.89615 9.14826 9.23883 9.84684 8.45053 9.93177C7.41178 10.0176 6.36823 9.99558 5.32708 9.9975C4.4625 9.96151 3.59647 9.96199 2.73428 9.88523C2.40418 9.85548 2.06449 9.87755 1.74447 9.77775C1.38606 9.67412 1.09723 9.35074 1.04733 8.97938C0.995992 8.64736 0.983518 8.30719 1.0243 7.97373C1.05933 7.70313 1.24069 7.46707 1.47866 7.33993C1.75646 7.17152 2.08992 7.16144 2.40466 7.13841C3.93328 7.04006 5.46526 7.01703 6.99628 7.01079C7.01067 5.34639 7.03418 3.68007 7.16517 2.01998C7.18436 1.6491 7.37964 1.27151 7.72269 1.10502Z" fill="currentColor"/>
<path d="M14.6572 1.18467C14.9378 1.0177 15.2756 1.01242 15.5923 1.0009C15.8859 0.998026 16.2122 1.01578 16.4434 1.22113C16.7087 1.43512 16.8172 1.78249 16.8335 2.1121C16.9496 3.74244 16.9678 5.37757 16.9755 7.01079C18.5622 7.01991 20.1503 7.03814 21.7331 7.14993C22.046 7.16624 22.3722 7.21902 22.6275 7.41477C22.8323 7.56495 22.9609 7.8106 22.9782 8.06345C23.0017 8.38444 22.9936 8.71021 22.9341 9.02688C22.863 9.40783 22.5416 9.71874 22.1659 9.8003C21.7826 9.8881 21.3843 9.85884 20.9957 9.90586C19.694 9.98742 18.3895 10.0105 17.0854 9.99606C16.5408 9.98262 15.9948 9.98262 15.4536 9.92073C14.7186 9.80462 14.1135 9.14922 14.0651 8.40554C13.9235 6.29542 14.0037 4.17713 14.1529 2.06988C14.1663 1.71676 14.3486 1.36555 14.6572 1.18467Z" fill="currentColor"/>
<path d="M2.1144 14.1544C4.07675 14.0426 6.04486 13.9409 8.00961 14.0479C8.31908 14.0589 8.63718 14.0748 8.92314 14.2062C9.5152 14.4505 9.90527 15.0636 9.93358 15.6965C10.0531 17.5993 9.98588 19.5084 9.86833 21.4094C9.83427 21.7721 9.87409 22.165 9.66874 22.486C9.48929 22.7979 9.13041 22.9553 8.78352 22.9802C8.47837 23.009 8.16651 23.0119 7.8652 22.9514C7.52694 22.8607 7.27841 22.5518 7.20452 22.2173C7.13495 21.9045 7.1244 21.5831 7.10472 21.2645C7.03084 19.8376 7.00877 18.4087 7.00493 16.9799C6.63837 16.9569 6.27132 16.978 5.90476 16.9698C4.58725 16.9473 3.26926 16.9257 1.95511 16.8211C1.62645 16.7966 1.30259 16.6278 1.13227 16.3394C0.979691 16.0731 1.0008 15.7536 1.00464 15.4575C1.02287 15.1783 1.03199 14.877 1.1932 14.6361C1.39231 14.331 1.756 14.1626 2.1144 14.1544Z" fill="currentColor"/>
<path d="M15.9795 14.0479C17.9461 13.9409 19.9157 14.0426 21.88 14.1544C22.2369 14.1635 22.5972 14.3319 22.7949 14.6366C22.972 14.9058 22.9739 15.2412 22.9883 15.5521C22.9916 15.8279 22.9979 16.1278 22.8395 16.3677C22.6615 16.6445 22.3396 16.7995 22.0172 16.823C20.3432 16.9478 18.6634 16.9833 16.9851 16.9814C16.9674 18.6007 16.9386 20.2209 16.8297 21.8373C16.8359 22.1981 16.7145 22.5834 16.4142 22.8051C16.1858 22.9941 15.8753 22.9927 15.5951 22.9999C15.3476 22.9975 15.0957 22.9855 14.8577 22.9111C14.6025 22.8291 14.3808 22.6391 14.2728 22.3925C14.1582 22.1588 14.1447 21.894 14.126 21.6392C14.008 19.6452 13.9322 17.643 14.0598 15.6475C14.0848 15.0156 14.5103 14.4236 15.0976 14.1923C15.3744 14.0695 15.682 14.0618 15.9795 14.0479Z" fill="currentColor"/>
</svg>
