<svg xmlns="http://www.w3.org/2000/svg" width="24" height="24" viewBox="0 0 24 24" fill="none">
<path d="M2.73284 1.06863C4.67417 0.927089 6.62125 1.03265 8.56163 1.13293C8.87159 1.15836 9.20218 1.16316 9.47519 1.33157C9.76692 1.50383 9.94829 1.8277 9.9718 2.16261C9.99915 2.48745 10.0246 2.82092 9.95261 3.14191C9.85089 3.53584 9.4608 3.79206 9.06975 3.82853C7.38032 3.96 5.68466 3.99358 3.99091 3.99071C3.97508 5.70124 3.94533 7.4137 3.81626 9.11992C3.76396 9.52873 3.45496 9.92601 3.03032 9.98215C2.69493 10.0196 2.3533 10.0042 2.01983 9.95384C1.70603 9.91306 1.42054 9.70626 1.28764 9.41933C1.16576 9.17942 1.15041 8.90641 1.1341 8.64347C1.0151 6.66279 0.942169 4.67492 1.06404 2.69281C1.07892 2.22595 1.29963 1.7706 1.66093 1.4736C1.95506 1.21354 2.34563 1.08927 2.73284 1.06863Z" fill="#637381"/>
<path d="M15.4666 1.13101C17.3965 1.03121 19.3335 0.928048 21.2638 1.06863C21.6745 1.08975 22.0895 1.23081 22.386 1.52398C22.7473 1.83922 22.9186 2.32047 22.9378 2.79069C23.0467 4.66245 22.982 6.539 22.8668 8.40884C22.8337 8.74615 22.8702 9.10457 22.7094 9.41549C22.5751 9.70242 22.2915 9.90874 21.9782 9.9524C21.6313 10.0057 21.2748 10.0225 20.9264 9.97687C20.5723 9.9121 20.2974 9.60502 20.2106 9.26483C20.1285 8.93567 20.1237 8.59405 20.1016 8.25722C20.0273 6.83649 20.0076 5.41288 20.0023 3.99023C18.4655 3.97103 16.9258 3.96767 15.3913 3.86164C15.136 3.84292 14.8731 3.84868 14.6298 3.75943C14.3199 3.64908 14.0641 3.36791 14.0219 3.03635C13.9802 2.69952 13.9931 2.35646 14.0454 2.02107C14.0996 1.66121 14.3751 1.35604 14.7162 1.23945C14.9571 1.1574 15.2147 1.14972 15.4666 1.13101Z" fill="#637381"/>
<path d="M1.69452 14.1724C1.99728 14.0083 2.35282 14.0112 2.68773 14.004C2.95403 14.0001 3.2472 14.0251 3.45304 14.2146C3.72221 14.4324 3.82729 14.7856 3.84169 15.12C3.95876 16.7447 3.97508 18.3746 3.98275 20.0026C5.59781 20.0141 7.21479 20.0309 8.82648 20.1489C9.1993 20.1672 9.60714 20.2871 9.82978 20.6091C10.0294 20.896 10.0016 21.264 9.99147 21.5961C9.97804 21.9291 9.9315 22.2961 9.66952 22.5331C9.36963 22.8565 8.89702 22.8412 8.49253 22.8647C6.7057 22.9894 4.91216 23.0307 3.12197 22.9635C2.77842 22.9367 2.42192 22.9491 2.09852 22.8119C1.58368 22.5912 1.18112 22.1047 1.09331 21.5476C1.05828 21.3418 1.0554 21.1326 1.04293 20.9253C0.946967 18.9734 1.02326 17.0182 1.15952 15.0706C1.17824 14.7098 1.3668 14.3432 1.69452 14.1724Z" fill="#637381"/>
<path d="M20.5661 14.1944C20.7983 14.0006 21.1174 13.9996 21.4043 14.0049C21.7417 14.014 22.1073 14.0279 22.3937 14.229C22.6941 14.4396 22.8352 14.812 22.8443 15.1694C22.969 17.2297 23.0578 19.2992 22.9273 21.3619C22.8855 22.1325 22.2517 22.8282 21.4821 22.9184C20.7878 22.9904 20.0887 22.976 19.392 23C17.9003 22.9765 16.4066 22.9544 14.9196 22.8206C14.5679 22.7831 14.2469 22.5461 14.1102 22.2198C14.0118 21.9607 14.0085 21.6781 13.9984 21.4046C13.9998 21.1316 13.996 20.8332 14.1668 20.6033C14.4048 20.2713 14.8314 20.16 15.22 20.1437C16.8087 20.0333 18.4017 20.0112 19.9937 20.0031C20.0086 18.3583 20.0316 16.7115 20.1578 15.0711C20.1717 14.7405 20.296 14.4003 20.5661 14.1944Z" fill="#637381"/>
</svg>
