<svg width="16" height="15" viewBox="0 0 16 15" fill="none" xmlns="http://www.w3.org/2000/svg">
<path d="M4.23992 14.8577H0.571417C0.251424 14.8577 0 14.5948 0 14.2748V6.45781C0 6.26353 0.0914282 6.09211 0.251425 5.97782L3.91992 3.40645C4.09135 3.28073 4.33135 3.26931 4.5142 3.37216C4.70848 3.47502 4.82276 3.6693 4.82276 3.88644V14.2862C4.82276 14.6062 4.55991 14.8691 4.25135 14.8691L4.23992 14.8577ZM1.14283 13.692H3.6685V4.98356L1.14283 6.75495V13.692Z" fill="#8A8D91"/>
<path d="M15.4167 14.8233H11.7482C11.4282 14.8233 11.1768 14.5605 11.1768 14.2405V3.8407C11.1768 3.62356 11.291 3.42928 11.4853 3.32643C11.6796 3.22357 11.9082 3.24643 12.0796 3.36071L15.7481 5.93209C15.9081 6.04637 15.9995 6.2178 15.9995 6.41208V14.2291C15.9995 14.5491 15.7367 14.8119 15.4281 14.8119L15.4167 14.8233ZM12.3196 13.6577H14.8453V6.72064L12.3196 4.94925V13.6577Z" fill="#8A8D91"/>
<path d="M9.7487 14.8577H6.08021C5.76021 14.8577 5.50879 14.5949 5.50879 14.2749V3.15508C5.50879 2.9608 5.60022 2.78937 5.76021 2.67509L9.42871 0.103713C9.60014 -0.0219991 9.84014 -0.0334282 10.023 0.0694269C10.2173 0.172282 10.3316 0.366565 10.3316 0.583703V14.2749C10.3316 14.5949 10.0687 14.8577 9.76014 14.8577H9.7487ZM6.65162 13.692H9.17729V1.69225L6.65162 3.46365V13.692Z" fill="#8A8D91"/>
</svg>
