<svg width="16" height="15" viewBox="0 0 16 15" fill="none" xmlns="http://www.w3.org/2000/svg">
<path d="M12.5889 15C12.499 15 12.409 14.9779 12.3303 14.9336L8.00091 12.6872L3.67151 14.9336C3.48034 15.0332 3.25544 15.0111 3.07552 14.8893C2.90684 14.7676 2.81688 14.5574 2.85062 14.3471L3.68276 9.59978L0.174268 6.23571C0.0168352 6.09185 -0.0393962 5.87053 0.0280748 5.67134C0.0955459 5.47215 0.27547 5.32829 0.477884 5.29509L5.32455 4.59793L7.49487 0.282184C7.68604 -0.0940612 8.31577 -0.0940612 8.50694 0.282184L10.6773 4.59793L15.5239 5.29509C15.7376 5.32829 15.9063 5.47215 15.9737 5.67134C16.0412 5.87053 15.9737 6.09185 15.8276 6.23571L12.3191 9.59978L13.1512 14.3471C13.1849 14.5574 13.1062 14.7676 12.9263 14.8893C12.8251 14.9557 12.7126 15 12.6002 15H12.5889ZM8.00091 11.5142C8.09087 11.5142 8.18083 11.5363 8.25954 11.5806L11.8468 13.4397L11.1608 9.51125C11.1271 9.33419 11.1945 9.14607 11.3182 9.02435L14.2195 6.24677L10.2162 5.67134C10.0363 5.64921 9.87885 5.52748 9.78889 5.37255L8.00091 1.79823L6.21292 5.37255C6.13421 5.53855 5.97678 5.64921 5.78561 5.67134L1.77108 6.24677L4.67234 9.02435C4.80728 9.14607 4.86351 9.33419 4.82977 9.51125L4.14381 13.4397L7.73102 11.5806C7.80974 11.5363 7.8997 11.5142 7.98966 11.5142H8.00091Z" fill="#8A8D91"/>
</svg>
