<svg xmlns="http://www.w3.org/2000/svg" width="24" height="24" viewBox="0 0 24 24" fill="none">
<path opacity="0.32" fill-rule="evenodd" clip-rule="evenodd" d="M20.9114 8.22695C19.4717 8.5891 17.7718 8.61315 16.3035 8.1646C15.6828 7.97495 15.1988 7.4914 14.9893 6.8771C14.4674 5.34677 14.3385 3.47362 14.722 2.0318C13.9279 2.01186 13.0248 2 12 2C8.51575 2 6.43945 2.13682 5.26285 2.26379C4.39116 2.35785 3.71902 2.94826 3.5558 3.80967C3.30175 5.15055 3 7.65725 3 12C3 16.3428 3.30175 18.8494 3.5558 20.1903C3.71902 21.0518 4.39116 21.6422 5.26285 21.7362C6.43945 21.8631 8.51575 22 12 22C15.4843 22 17.5606 21.8631 18.7372 21.7362C19.6089 21.6422 20.281 21.0518 20.4442 20.1903C20.6982 18.8494 21 16.3428 21 12C21 10.5445 20.9661 9.2952 20.9114 8.22695Z" fill="currentColor"/>
<path d="M20.9114 8.22695C19.4717 8.5891 17.7718 8.61315 16.3035 8.1646C15.6828 7.97495 15.1988 7.4914 14.9893 6.8771C14.4674 5.34675 14.3384 3.47357 14.722 2.03174C14.722 2.03174 15.9461 2.49994 18.1961 4.74994C20.4461 6.99995 20.9114 8.22695 20.9114 8.22695Z" fill="currentColor"/>
</svg>
