<svg xmlns="http://www.w3.org/2000/svg" width="24" height="24" viewBox="0 0 24 24" fill="none">
<g id="icons/notification/ic_chat">
<g id="stack">
<path id="Path" fill-rule="evenodd" clip-rule="evenodd" d="M15.9546 7.27183C20.3369 7.20489 23.9136 10.654 23.9985 15.0359C24.0109 15.6793 23.9466 16.3055 23.8141 16.9061C23.5898 17.9232 23.4564 18.9581 23.4564 19.9997V22.0128C23.4564 22.3213 23.2064 22.5713 22.898 22.5713H20.8848C19.8433 22.5713 18.8083 22.7047 17.7913 22.929C17.1907 23.0615 16.5645 23.1258 15.9211 23.1133C11.5392 23.0285 8.09012 19.4519 8.15696 15.0697C8.22216 10.7924 11.6773 7.33718 15.9546 7.27183Z" fill="url(#paint0_linear_0_8824)"/>
<path id="Path_2" fill-rule="evenodd" clip-rule="evenodd" d="M9.80149 0.0425493C4.4627 -0.0390131 0.105251 4.16291 0.00184497 9.50132C-0.0132957 10.285 0.0650325 11.048 0.22647 11.7797C0.499751 13.0187 0.66222 14.2796 0.66222 15.5485V18.0011C0.66222 18.3768 0.966814 18.6815 1.34261 18.6815H3.7952C5.06402 18.6815 6.32491 18.8439 7.56395 19.1172C8.29567 19.2786 9.05861 19.357 9.84231 19.3418C15.1806 19.2384 19.3825 14.8811 19.3012 9.54242C19.2217 4.33147 15.0124 0.122096 9.80149 0.0425493Z" fill="url(#paint1_linear_0_8824)"/>
<g id="Vector" opacity="0.48">
<path fill-rule="evenodd" clip-rule="evenodd" d="M6.19693 9.17512C5.9243 8.88543 5.53843 8.70351 5.10915 8.70351C4.28354 8.70351 3.61426 9.37279 3.61426 10.1984C3.61426 10.6276 3.79613 11.0135 4.08587 11.2862L7.31059 14.5109C7.58326 14.8006 7.96913 14.9825 8.39837 14.9825C9.22398 14.9825 9.89326 14.3132 9.89326 13.4876C9.89326 13.0584 9.71134 12.6725 9.42165 12.3998L6.19693 9.17512Z" fill="#006C9C"/>
<path fill-rule="evenodd" clip-rule="evenodd" d="M10.4245 9.17512C10.1518 8.88543 9.76597 8.70351 9.33669 8.70351C8.51108 8.70351 7.8418 9.37279 7.8418 10.1984C7.8418 10.6276 8.02367 11.0135 8.31341 11.2862L11.5381 14.5109C11.8108 14.8006 12.1967 14.9825 12.6259 14.9825C13.4515 14.9825 14.1208 14.3132 14.1208 13.4876C14.1208 13.0584 13.9389 12.6725 13.6492 12.3998L10.4245 9.17512Z" fill="#006C9C"/>
<path fill-rule="evenodd" clip-rule="evenodd" d="M14.6518 9.1751C14.3792 8.88541 13.9933 8.70349 13.564 8.70349C12.7384 8.70349 12.0692 9.37277 12.0692 10.1984C12.0692 10.6276 12.2511 11.0135 12.5408 11.2862L15.7655 14.5109C16.0382 14.8006 16.424 14.9825 16.8533 14.9825C17.6789 14.9825 18.3482 14.3132 18.3482 13.4876C18.3482 13.0584 18.1662 12.6725 17.8765 12.3998L14.6518 9.1751Z" fill="#006C9C"/>
</g>
<g id="Vector_2">
<path d="M6.60404 10.1981C6.60404 11.0237 5.93475 11.693 5.10915 11.693C4.28354 11.693 3.61426 11.0237 3.61426 10.1981C3.61426 9.37253 4.28354 8.70325 5.10915 8.70325C5.93475 8.70325 6.60404 9.37253 6.60404 10.1981Z" fill="white"/>
<path d="M10.8314 10.1982C10.8314 11.0238 10.1621 11.6931 9.33649 11.6931C8.51088 11.6931 7.84159 11.0238 7.84159 10.1982C7.84159 9.37257 8.51088 8.70329 9.33649 8.70329C10.1621 8.70329 10.8314 9.37257 10.8314 10.1982Z" fill="white"/>
<path d="M15.0592 10.1982C15.0592 11.0238 14.3899 11.6931 13.5643 11.6931C12.7387 11.6931 12.0694 11.0238 12.0694 10.1982C12.0694 9.37257 12.7387 8.70329 13.5643 8.70329C14.3899 8.70329 15.0592 9.37257 15.0592 10.1982Z" fill="white"/>
</g>
</g>
</g>
<defs>
<linearGradient id="paint0_linear_0_8824" x1="8.15601" y1="7.27087" x2="24" y2="23.1149" gradientUnits="userSpaceOnUse">
<stop stop-color="#77ED8B"/>
<stop offset="1" stop-color="#22C55E"/>
</linearGradient>
<linearGradient id="paint1_linear_0_8824" x1="0" y1="0.0413818" x2="19.3023" y2="19.3437" gradientUnits="userSpaceOnUse">
<stop stop-color="#00B8D9"/>
<stop offset="1" stop-color="#006C9C"/>
</linearGradient>
</defs>
</svg>
