<svg xmlns="http://www.w3.org/2000/svg" width="24" height="24" viewBox="0 0 24 24" fill="none">
<g id="icons/notification/ic_shipping">
<g id="stack">
<path id="Combined Shape" d="M23.9846 13.5663L20.4739 9.74142C20.2159 9.46006 19.8516 9.29989 19.4698 9.29993H15.1113V19.7723H16.7785C16.7785 18.4551 17.8463 17.3874 19.1634 17.3874C20.4806 17.3874 21.5484 18.4551 21.5484 19.7723H22.6217C22.9832 19.7724 23.3299 19.6288 23.5855 19.3732C23.8411 19.1175 23.9847 18.7708 23.9846 18.4093V13.5663Z" fill="url(#paint0_linear_0_8865)"/>
<path id="Path" fill-rule="evenodd" clip-rule="evenodd" d="M15.1111 13.5665V19.7724H7.85246C7.85246 18.4551 6.78457 17.3872 5.46725 17.3872C4.14994 17.3872 3.08204 18.4551 3.08204 19.7724H1.3786C1.0171 19.7725 0.670387 19.6289 0.414766 19.3733C0.159146 19.1177 0.0155658 18.7709 0.015625 18.4094V7.03009C0.0155658 6.66859 0.159146 6.32188 0.414766 6.06626C0.670387 5.81063 1.0171 5.66706 1.3786 5.66711H2.85711C2.94212 8.0702 4.91485 9.97439 7.31944 9.97439C9.72402 9.97439 11.6968 8.0702 11.7818 5.66711H13.7481C14.5008 5.66718 15.111 6.27737 15.1111 7.03009V13.5665Z" fill="#FFAB00"/>
<path id="Path_2" fill-rule="evenodd" clip-rule="evenodd" d="M11.7846 5.517C11.7846 5.56723 11.784 5.61746 11.7818 5.66714C11.6968 8.07022 9.72407 9.97441 7.31949 9.97441C4.9149 9.97441 2.94216 8.07022 2.85716 5.66714C2.85493 5.61746 2.85437 5.56723 2.85437 5.517C2.85437 3.05098 4.85347 1.05188 7.31949 1.05188C9.7855 1.05188 11.7846 3.05098 11.7846 5.517V5.517Z" fill="#61F3F3"/>
<g id="Vector">
<path d="M21.5481 19.7724C21.5481 21.0895 20.4803 22.1573 19.1631 22.1573C17.846 22.1573 16.7782 21.0895 16.7782 19.7724C16.7782 18.4552 17.846 17.3875 19.1631 17.3875C20.4803 17.3875 21.5481 18.4552 21.5481 19.7724Z" fill="#B76E00"/>
<path fill-rule="evenodd" clip-rule="evenodd" d="M5.46696 17.3875C6.78412 17.3875 7.85189 18.4552 7.85189 19.7724C7.85189 21.0895 6.78412 22.1573 5.46696 22.1573C4.1498 22.1573 3.08203 21.0895 3.08203 19.7724C3.08206 18.4552 4.14981 17.3875 5.46696 17.3875Z" fill="#B76E00"/>
</g>
<path id="Path_3" fill-rule="evenodd" clip-rule="evenodd" d="M8.80965 7.30308C8.71048 7.30321 8.61499 7.26548 8.54269 7.1976L7.05246 5.80225C6.97358 5.72837 6.92882 5.62512 6.92883 5.51704V2.62141C6.92883 2.40563 7.10375 2.23071 7.31953 2.23071C7.53531 2.23071 7.71023 2.40563 7.71023 2.62141V5.34792L9.07678 6.62746C9.19385 6.73707 9.23205 6.90709 9.17312 7.05624C9.11418 7.20539 8.97008 7.30338 8.80971 7.30336L8.80965 7.30308Z" fill="#006C9C"/>
</g>
</g>
<defs>
<linearGradient id="paint0_linear_0_8865" x1="15.1113" y1="9.29993" x2="25.4416" y2="18.0528" gradientUnits="userSpaceOnUse">
<stop stop-color="#FFD666"/>
<stop offset="1" stop-color="#FFAB00"/>
</linearGradient>
</defs>
</svg>
