<svg xmlns="http://www.w3.org/2000/svg" width="24" height="24" viewBox="0 0 24 24" fill="none">
<path opacity="0.32" fill-rule="evenodd" clip-rule="evenodd" d="M3.77688 21.3755C2.93261 21.1957 2.36966 20.5161 2.28099 19.6575C2.14952 18.3844 2 16.0469 2 12C2 7.95305 2.14952 5.6156 2.28099 4.34251C2.36966 3.48389 2.93261 2.80424 3.77688 2.62451C5.1095 2.34081 7.6216 2 12 2C16.3784 2 18.8905 2.34081 20.2231 2.62451C21.0674 2.80424 21.6304 3.48389 21.719 4.34251C21.8505 5.6156 22 7.95305 22 12C22 16.0469 21.8505 18.3844 21.719 19.6575C21.6304 20.5161 21.0674 21.1957 20.2232 21.3755C18.8905 21.6592 16.3784 22 12 22C7.6216 22 5.1095 21.6592 3.77688 21.3755ZM17 8.37267V15.236C16.9936 15.5958 16.8463 15.9387 16.59 16.1909C16.3336 16.4431 15.9886 16.5844 15.6293 16.5844C15.27 16.5844 14.925 16.4431 14.6686 16.1909C14.4123 15.9387 14.265 15.5958 14.2586 15.236V11.6671L9.3496 16.5953C8.81262 17.1344 7.94025 17.135 7.40262 16.5965C6.86689 16.06 6.86528 15.1919 7.40088 14.6553C9.12404 12.9289 11.6962 10.3625 12.3396 9.74535H8.77583C8.41654 9.73891 8.07415 9.59146 7.82234 9.33474C7.57053 9.07801 7.42944 8.73254 7.42944 8.37267C7.42944 8.01281 7.57053 7.66734 7.82234 7.41061C8.07415 7.15389 8.41654 7.00644 8.77583 7H15.6293C15.9925 7.00109 16.3405 7.14606 16.5973 7.40325C16.8542 7.66044 16.9989 8.00895 17 8.37267Z" fill="currentColor"/>
<path d="M16.9999 15.236V8.37267C16.9988 8.00895 16.854 7.66044 16.5972 7.40325C16.3404 7.14606 15.9924 7.00109 15.6292 7H8.77571C8.41642 7.00644 8.07403 7.15389 7.82222 7.41061C7.57041 7.66734 7.42931 8.01281 7.42931 8.37267C7.42931 8.73254 7.57041 9.07801 7.82222 9.33474C8.07403 9.59146 8.41642 9.73891 8.77571 9.74535H12.3395C11.6961 10.3625 9.12392 12.9289 7.40076 14.6553C6.86515 15.1919 6.86677 16.06 7.40249 16.5965C7.94013 17.135 8.8125 17.1344 9.34947 16.5953L14.2585 11.6671V15.236C14.2649 15.5958 14.4122 15.9387 14.6685 16.1909C14.9249 16.4431 15.2698 16.5844 15.6292 16.5844C15.9885 16.5844 16.3335 16.4431 16.5899 16.1909C16.8462 15.9387 16.9935 15.5958 16.9999 15.236Z" fill="currentColor"/>
</svg>
