<svg width="40" height="41" viewBox="0 0 40 41" fill="none" xmlns="http://www.w3.org/2000/svg">
<path d="M23.172 0.990234C23.7022 0.990234 24.2107 1.20074 24.5857 1.57549L36.4137 13.3946C36.7891 13.7697 37 14.2786 37 14.8093V36.3236C37 38.9009 34.8689 40.9902 32.24 40.9902H7.76C5.13112 40.9902 3 38.9009 3 36.3236V5.6569C3 3.07957 5.13112 0.990234 7.76 0.990234H23.172Z" fill="#C4CDD5"/>
<g filter="url(#filter0_d_1995_147665)">
<path d="M35.1548 13.1284C35.4678 13.4439 35.2443 13.9805 34.7998 13.9805H29C26.4227 13.9805 24.0976 11.7135 24.0976 9.20054V3.19458C24.0976 2.74814 24.6382 2.52551 24.9526 2.84248L35.1548 13.1284Z" fill="white" fill-opacity="0.24" shape-rendering="crispEdges"/>
</g>
<defs>
<filter id="filter0_d_1995_147665" x="22.0977" y="2.6936" width="15.2031" height="15.2869" filterUnits="userSpaceOnUse" color-interpolation-filters="sRGB">
<feFlood flood-opacity="0" result="BackgroundImageFix"/>
<feColorMatrix in="SourceAlpha" type="matrix" values="0 0 0 0 0 0 0 0 0 0 0 0 0 0 0 0 0 0 127 0" result="hardAlpha"/>
<feOffset dy="2"/>
<feGaussianBlur stdDeviation="1"/>
<feComposite in2="hardAlpha" operator="out"/>
<feColorMatrix type="matrix" values="0 0 0 0 0 0 0 0 0 0 0 0 0 0 0 0 0 0 0.04 0"/>
<feBlend mode="normal" in2="BackgroundImageFix" result="effect1_dropShadow_1995_147665"/>
<feBlend mode="normal" in="SourceGraphic" in2="effect1_dropShadow_1995_147665" result="shape"/>
</filter>
</defs>
</svg>
