<svg xmlns="http://www.w3.org/2000/svg" width="24" height="24" viewBox="0 0 24 24" fill="none">
<g id="icons/notification/ic_mail">
<path id="Vector" d="M0 8.99999L11.556 16.3545C11.688 16.452 11.844 16.5 12 16.5C12.156 16.5 12.312 16.452 12.444 16.3545L24 8.99999L12.45 0.149992C12.3201 0.052856 12.1622 0.000366211 12 0.000366211C11.8378 0.000366211 11.6799 0.052856 11.55 0.149992L0 8.99999Z" fill="#FFE9D5"/>
<path id="Vector_2" d="M19.5 0H4.5C3.6735 0 3 0.6735 3 1.5V18C3 18.414 3.336 18.75 3.75 18.75H20.25C20.664 18.75 21 18.414 21 18V1.5C21 0.6735 20.328 0 19.5 0Z" fill="#61F3F3"/>
<path id="Vector_3" d="M6.75 4.5H17.25C17.664 4.5 18 4.164 18 3.75C18 3.336 17.664 3 17.25 3H6.75C6.336 3 6 3.336 6 3.75C6 4.164 6.336 4.5 6.75 4.5ZM17.25 6H6.75C6.336 6 6 6.336 6 6.75C6 7.164 6.336 7.5 6.75 7.5H17.25C17.664 7.5 18 7.164 18 6.75C18 6.336 17.664 6 17.25 6ZM12.75 9H6.75C6.336 9 6 9.336 6 9.75C6 10.164 6.336 10.5 6.75 10.5H12.75C13.164 10.5 13.5 10.164 13.5 9.75C13.5 9.336 13.164 9 12.75 9Z" fill="#006C9C"/>
<path id="Vector_4" d="M12.444 16.3545C12.312 16.452 12.156 16.5 12 16.5C11.844 16.5 11.688 16.452 11.556 16.3545L0 9V22.5C0 23.328 0.672 24 1.5 24H22.5C23.328 24 24 23.328 24 22.5V9L12.444 16.3545Z" fill="url(#paint0_linear_0_8835)"/>
<path id="Vector_5" d="M22.5 24H1.5C0.6585 24 0 23.3415 0 22.5C6.7075e-05 22.3823 0.0277958 22.2663 0.0809492 22.1613C0.134103 22.0563 0.211192 21.9652 0.306 21.8955L11.556 14.3955C11.688 14.298 11.844 14.25 12 14.25C12.156 14.25 12.312 14.298 12.444 14.3955L23.694 21.8955C23.7888 21.9652 23.8659 22.0563 23.9191 22.1613C23.9722 22.2663 23.9999 22.3823 24 22.5C24 23.3415 23.3415 24 22.5 24Z" fill="#FF5630"/>
</g>
<defs>
<linearGradient id="paint0_linear_0_8835" x1="0" y1="9" x2="13.4831" y2="30.573" gradientUnits="userSpaceOnUse">
<stop stop-color="#FFAC82"/>
<stop offset="1" stop-color="#FF5630"/>
</linearGradient>
</defs>
</svg>
