<svg xmlns="http://www.w3.org/2000/svg" width="24" height="24" viewBox="0 0 24 24" fill="none">
<g id="icons/notification/ic_package">
<g id="stack">
<path id="Path" fill-rule="evenodd" clip-rule="evenodd" d="M15.0481 20.02C13.9573 18.1401 14.2658 15.7619 15.8001 14.2225C17.3344 12.6831 19.7117 12.3668 21.5951 13.4514C23.4786 14.5361 24.3982 16.7509 23.8369 18.8506C23.2756 20.9504 21.3735 22.4109 19.2001 22.411C17.4871 22.4174 15.9023 21.5048 15.0481 20.02Z" fill="url(#paint0_linear_0_8848)"/>
<g id="Vector">
<path fill-rule="evenodd" clip-rule="evenodd" d="M19.1996 5.57765V12.8111C17.4829 12.8113 15.897 13.7281 15.0402 15.2157C14.1834 16.7033 14.1862 18.5352 15.0476 20.0201L9.59959 23.1651V11.1191L19.1986 5.57715L19.1996 5.57765Z" fill="#FFD666"/>
<path fill-rule="evenodd" clip-rule="evenodd" d="M9.59998 0.0351562L13.4095 2.23466L3.81048 7.77666L0.000976562 5.57716L9.59998 0.0351562Z" fill="#FFD666"/>
</g>
<g id="Vector_2">
<path fill-rule="evenodd" clip-rule="evenodd" d="M9.6 11.1191L6.257 9.18909L15.8565 3.64709L19.199 5.57709L9.6 11.1191Z" fill="#FFAB00"/>
<path fill-rule="evenodd" clip-rule="evenodd" d="M9.6 11.1191V23.1651L0 17.6226V5.57759L0.001 5.5771L3.81 7.7766V15.7641L4.9725 15.2841L6.24 16.7241V9.19909L6.257 9.18909L9.6 11.1191Z" fill="#FFAB00"/>
</g>
<g id="Vector_3">
<path fill-rule="evenodd" clip-rule="evenodd" d="M15.8565 3.64712L6.257 9.18912L3.8105 7.77662L13.4095 2.23462L15.8565 3.64712Z" fill="url(#paint1_linear_0_8848)"/>
<path fill-rule="evenodd" clip-rule="evenodd" d="M6.257 9.18912L6.23957 9.19907V16.7241L4.97207 15.2841L3.80957 15.7641L3.8105 7.77662L6.257 9.18912Z" fill="url(#paint2_linear_0_8848)"/>
</g>
<g id="Vector_4">
<path fill-rule="evenodd" clip-rule="evenodd" d="M1.24148 17.7187C1.04818 17.7187 0.891479 17.562 0.891479 17.3687V16.0727C0.891479 15.8794 1.04818 15.7227 1.24148 15.7227C1.43478 15.7227 1.59148 15.8794 1.59148 16.0727V17.3687C1.59148 17.562 1.43478 17.7187 1.24148 17.7187Z" fill="#FFD666"/>
<path fill-rule="evenodd" clip-rule="evenodd" d="M2.66248 18.5502C2.46918 18.5502 2.31248 18.3935 2.31248 18.2002V17.0327C2.31248 16.8394 2.46918 16.6827 2.66248 16.6827C2.85578 16.6827 3.01248 16.8394 3.01248 17.0327V18.2002C3.01248 18.3935 2.85578 18.5502 2.66248 18.5502Z" fill="#FFD666"/>
<path fill-rule="evenodd" clip-rule="evenodd" d="M4.08435 19.3707C3.89105 19.3707 3.73435 19.214 3.73435 19.0207V17.9927C3.73435 17.7994 3.89105 17.6427 4.08435 17.6427C4.27765 17.6427 4.43435 17.7994 4.43435 17.9927V19.0207C4.43435 19.214 4.27765 19.3707 4.08435 19.3707Z" fill="#FFD666"/>
<path fill-rule="evenodd" clip-rule="evenodd" d="M5.50525 20.1912C5.31195 20.1912 5.15525 20.0345 5.15525 19.8412V18.9527C5.15525 18.7594 5.31195 18.6027 5.50525 18.6027C5.69855 18.6027 5.85525 18.7594 5.85525 18.9527V19.8412C5.85525 20.0345 5.69855 20.1912 5.50525 20.1912Z" fill="#FFD666"/>
<path fill-rule="evenodd" clip-rule="evenodd" d="M6.92598 21.0307C6.73268 21.0307 6.57598 20.874 6.57598 20.6807V19.9127C6.57598 19.7194 6.73268 19.5627 6.92598 19.5627C7.11928 19.5627 7.27598 19.7194 7.27598 19.9127V20.6807C7.27598 20.874 7.11928 21.0307 6.92598 21.0307Z" fill="#FFD666"/>
</g>
<path id="Path_2" d="M18.1105 19.32C18.008 19.3201 17.9106 19.2752 17.8441 19.1972L16.6841 17.8382C16.6018 17.7433 16.5768 17.6115 16.6185 17.493C16.6602 17.3744 16.7622 17.2874 16.8858 17.2648C17.0094 17.2422 17.1356 17.2876 17.2165 17.3838L18.1545 18.4827L21.2295 15.981C21.3264 15.9012 21.4587 15.8793 21.5761 15.9238C21.6935 15.9683 21.7781 16.0723 21.7977 16.1963C21.8174 16.3203 21.7692 16.4453 21.6713 16.5239L18.3313 19.2415C18.269 19.2924 18.1909 19.3201 18.1105 19.32Z" fill="#007867"/>
<g id="Vector_5">
<path fill-rule="evenodd" clip-rule="evenodd" d="M11.5888 18.0471C11.4302 18.0473 11.2914 17.941 11.2503 17.7879C11.2092 17.6347 11.2761 17.4731 11.4135 17.3939L13.008 16.4734C13.1163 16.4109 13.2497 16.4109 13.358 16.4734C13.4663 16.536 13.533 16.6515 13.533 16.7766C13.533 16.9016 13.4663 17.0172 13.358 17.0797L11.7635 18.0001C11.7104 18.0309 11.6501 18.0471 11.5888 18.0471Z" fill="#B76E00"/>
<path fill-rule="evenodd" clip-rule="evenodd" d="M12.5425 11.3318C12.4653 11.25 12.3535 11.2103 12.242 11.2251C12.1305 11.2398 12.0329 11.3073 11.9797 11.4063L11.1347 12.9783C11.0763 13.0868 11.0793 13.2179 11.1424 13.3236C11.2055 13.4293 11.3195 13.4941 11.4427 13.4941C11.5732 13.4944 11.6937 13.4239 11.7573 13.3098L11.95 12.9624V15.9711C11.95 16.1644 12.1067 16.3211 12.3 16.3211C12.4933 16.3211 12.65 16.1644 12.65 15.9711V12.4526L12.9345 12.7604C12.9976 12.8278 13.0851 12.8673 13.1774 12.87C13.2697 12.8726 13.3593 12.8383 13.4263 12.7746C13.4936 12.7107 13.5328 12.6226 13.5352 12.5297C13.5376 12.4369 13.5029 12.3469 13.439 12.2796L12.5425 11.3318Z" fill="#B76E00"/>
</g>
</g>
</g>
<defs>
<linearGradient id="paint0_linear_0_8848" x1="14.3997" y1="12.8109" x2="23.9998" y2="22.4115" gradientUnits="userSpaceOnUse">
<stop stop-color="#77ED8B"/>
<stop offset="1" stop-color="#22C55E"/>
</linearGradient>
<linearGradient id="paint1_linear_0_8848" x1="3.80957" y1="2.23462" x2="18.0556" y2="14.0791" gradientUnits="userSpaceOnUse">
<stop stop-color="#FFAB00"/>
<stop offset="1" stop-color="#B76E00"/>
</linearGradient>
<linearGradient id="paint2_linear_0_8848" x1="3.80957" y1="2.23462" x2="18.0556" y2="14.0791" gradientUnits="userSpaceOnUse">
<stop stop-color="#FFAB00"/>
<stop offset="1" stop-color="#B76E00"/>
</linearGradient>
</defs>
</svg>
